<svg width="51" height="51" viewBox="0 0 51 51" fill="none" xmlns="http://www.w3.org/2000/svg">
<path d="M37.3039 31.266C37.3039 33.4563 37.9313 34.3298 39.5721 34.3298C43.229 34.3298 45.5575 29.7016 45.5575 22.0045C45.5575 10.2397 36.9259 4.60771 26.1495 4.60771C15.0633 4.60771 4.97998 11.9919 4.97998 25.9469C4.97998 39.276 13.8006 46.5351 27.3466 46.5351C31.9459 46.5351 35.0331 46.0345 39.7558 44.47L40.7692 48.6602C36.1068 50.1647 31.1242 50.6001 27.2836 50.6001C9.5163 50.6001 0 40.9005 0 25.9443C0 10.8629 11.0284 0.600098 26.2125 0.600098C42.0266 0.600098 50.4036 9.98683 50.4036 21.5012C50.4036 31.2634 47.319 38.7102 37.6163 38.7102C33.2034 38.7102 30.3078 36.958 29.9298 33.0756C28.7957 37.3935 25.7715 38.7102 21.6735 38.7102C16.1922 38.7102 11.5928 34.5149 11.5928 26.0694C11.5928 17.5588 15.6277 12.3022 22.8733 12.3022C26.7165 12.3022 29.1107 13.8041 30.1765 16.1821L32.0063 12.8654H37.2987V31.266H37.3039ZM29.557 23.0057C29.557 19.5665 26.9712 18.1246 24.829 18.1246C22.4979 18.1246 19.9173 19.9993 19.9173 25.5088C19.9173 29.8893 21.8704 32.3299 24.829 32.3299C26.9082 32.3299 29.557 31.0157 29.557 27.3862V23.0057Z" fill="white"/>
</svg>
