<svg width="51" height="72" viewBox="0 0 51 72" fill="none" xmlns="http://www.w3.org/2000/svg">
<path d="M50.4036 51.5198L37.4473 55.6813L25.3001 52.4482L12.863 55.6813L0 51.5004V49.2703C0 46.6875 0.796554 44.2106 2.21443 42.3843C3.63231 40.558 5.55536 39.532 7.56054 39.532H42.843C44.8482 39.532 46.7713 40.558 48.1892 42.3843C49.607 44.2106 50.4036 46.6875 50.4036 49.2703V51.5198ZM50.4036 58.2165V71.993H0V58.1971L12.7445 62.3358L25.29 59.0767L37.5355 62.3358L50.4036 58.2165ZM17.6413 29.7937H32.7623V36.2859H17.6413V29.7937ZM25.2018 27.8461C23.1966 27.8461 21.2736 26.8201 19.8557 24.9938C18.4378 23.1675 17.6413 20.6905 17.6413 18.1078C17.6413 14.5208 20.1614 8.67787 25.2018 0.578857C30.2422 8.67787 32.7623 14.5208 32.7623 18.1078C32.7623 20.6905 31.9658 23.1675 30.5479 24.9938C29.13 26.8201 27.207 27.8461 25.2018 27.8461Z" fill="white"/>
</svg>
