<svg width="59" height="57" viewBox="0 0 59 57" fill="none" xmlns="http://www.w3.org/2000/svg">
<path d="M39.2086 26.4676V11.0564C39.2086 9.47652 38.5225 7.95626 37.2809 6.85334L31.6936 1.75602C31.3914 1.47968 31.0323 1.26044 30.6371 1.11086C30.2418 0.961274 29.8181 0.884277 29.3901 0.884277C28.9622 0.884277 28.5385 0.961274 28.1432 1.11086C27.748 1.26044 27.3889 1.47968 27.0866 1.75602L21.5321 6.82353C20.2905 7.95626 19.6043 9.47652 19.6043 11.0564V14.544H6.53477C2.94065 14.544 0 17.2268 0 20.5058V50.3147C0 53.5936 2.94065 56.2764 6.53477 56.2764H52.2782C55.8723 56.2764 58.813 53.5936 58.813 50.3147V32.4293C58.813 29.1504 55.8723 26.4676 52.2782 26.4676H39.2086ZM13.0695 50.3147H6.53477V44.3529H13.0695V50.3147ZM13.0695 38.3911H6.53477V32.4293H13.0695V38.3911ZM13.0695 26.4676H6.53477V20.5058H13.0695V26.4676ZM32.6739 50.3147H26.1391V44.3529H32.6739V50.3147ZM32.6739 38.3911H26.1391V32.4293H32.6739V38.3911ZM32.6739 26.4676H26.1391V20.5058H32.6739V26.4676ZM32.6739 14.544H26.1391V8.58225H32.6739V14.544ZM52.2782 50.3147H45.7434V44.3529H52.2782V50.3147ZM52.2782 38.3911H45.7434V32.4293H52.2782V38.3911Z" fill="white"/>
</svg>
