<svg width="50" height="59" viewBox="0 0 50 59" fill="none" xmlns="http://www.w3.org/2000/svg">
<path d="M0 3.60445C0 2.80203 0.277255 2.03247 0.770772 1.46507C1.26429 0.897678 1.93364 0.578918 2.63158 0.578918C3.32952 0.578918 3.99887 0.897678 4.49239 1.46507C4.9859 2.03247 5.26316 2.80203 5.26316 3.60445H47.3684C48.0664 3.60445 48.7357 3.92321 49.2292 4.4906C49.7227 5.058 50 5.82755 50 6.62997C50 7.43239 49.7227 8.20195 49.2292 8.76935C48.7357 9.33674 48.0664 9.6555 47.3684 9.6555H5.26316V56.5512C5.26316 56.9524 5.12453 57.3372 4.87777 57.6209C4.63101 57.9046 4.29634 58.0639 3.94737 58.0639H1.31579C0.96682 58.0639 0.632144 57.9046 0.385386 57.6209C0.138628 57.3372 0 56.9524 0 56.5512V3.60445ZM7.89474 14.9502C7.89474 14.3484 8.10268 13.7712 8.47282 13.3456C8.84295 12.9201 9.34497 12.681 9.86842 12.681H45.3947C45.9182 12.681 46.4202 12.9201 46.7903 13.3456C47.1605 13.7712 47.3684 14.3484 47.3684 14.9502V40.6672C47.3684 42.8738 46.606 44.9901 45.2488 46.5504C43.8916 48.1108 42.0509 48.9874 40.1316 48.9874H15.1316C14.1812 48.9874 13.2402 48.7722 12.3622 48.354C11.4841 47.9359 10.6864 47.323 10.0144 46.5504C8.65719 44.9901 7.89474 42.8738 7.89474 40.6672V14.9502ZM18.4211 29.2004V38.398C18.4211 38.7992 18.5597 39.184 18.8064 39.4677C19.0532 39.7514 19.3879 39.9108 19.7368 39.9108H24.3421C24.5166 39.9108 24.6839 39.8311 24.8073 39.6892C24.9307 39.5474 25 39.355 25 39.1544V35.3725C25 34.9713 25.1386 34.5865 25.3854 34.3028C25.6321 34.0191 25.9668 33.8597 26.3158 33.8597H28.9474C29.2963 33.8597 29.631 34.0191 29.8778 34.3028C30.1245 34.5865 30.2632 34.9713 30.2632 35.3725V39.1544C30.2632 39.5719 30.5579 39.9108 30.9211 39.9108H35.5263C35.8753 39.9108 36.21 39.7514 36.4567 39.4677C36.7035 39.184 36.8421 38.7992 36.8421 38.398V29.2004C36.8421 28.7634 36.7598 28.3316 36.6008 27.9346C36.4418 27.5377 36.2099 27.1851 35.9211 26.901L28.4895 19.5792C28.2511 19.3449 27.9478 19.2161 27.6342 19.2161C27.3206 19.2161 27.0173 19.3449 26.7789 19.5792L19.3395 26.901C19.0514 27.185 18.8202 27.5373 18.6617 27.9337C18.5032 28.33 18.4211 28.7611 18.4211 29.1974V29.2004Z" fill="white"/>
</svg>
