<svg width="830" height="282" viewBox="0 0 830 282" fill="none" xmlns="http://www.w3.org/2000/svg">
<path d="M5 130.71L825 129.484" stroke="black" stroke-width="10" stroke-linecap="round"/>
<path d="M99.6504 13.4436C93.268 9.7707 85.1165 11.9672 81.4436 18.3496C77.7707 24.732 79.9672 32.8835 86.3496 36.5564C92.732 40.2293 100.883 38.0328 104.556 31.6504C108.229 25.268 106.033 17.1165 99.6504 13.4436ZM29.8332 129.753C29.1445 130.95 29.5564 132.478 30.7531 133.167C31.9498 133.855 33.4782 133.444 34.1668 132.247L29.8332 129.753ZM90.8332 23.7531L29.8332 129.753L34.1668 132.247L95.1668 26.2469L90.8332 23.7531Z" fill="black"/>
<path d="M525.582 38.7897C520.094 33.8793 511.803 34.4674 507.064 40.1032C502.324 45.7391 502.931 54.2884 508.418 59.1988C513.906 64.1092 522.197 63.5211 526.936 57.8853C531.676 52.2495 531.069 43.7001 525.582 38.7897ZM443.137 132.943C442.248 134 442.362 135.603 443.391 136.524C444.42 137.444 445.974 137.334 446.863 136.277L443.137 132.943ZM515.137 47.3272L443.137 132.943L446.863 136.277L518.863 50.6613L515.137 47.3272Z" fill="black"/>
<path d="M125.576 89.6303C123.656 89.6303 121.896 89.1663 120.296 88.2383C118.728 87.3103 117.48 86.0303 116.552 84.3983C115.624 82.7663 115.16 80.8943 115.16 78.7823C115.16 76.5103 115.608 74.3983 116.504 72.4463C117.432 70.4943 118.648 68.6703 120.152 66.9743C121.656 65.2783 123.304 63.7103 125.096 62.2703C126.92 60.8303 128.728 59.4863 130.52 58.2383L132.056 60.0143C129.4 61.5823 127.128 63.2143 125.24 64.9103C123.352 66.5743 121.832 68.2383 120.68 69.9023C119.56 71.5663 118.808 73.1663 118.424 74.7023L117.8 74.5583C118.696 72.9903 119.864 71.8063 121.304 71.0063C122.744 70.1743 124.392 69.7583 126.248 69.7583C127.976 69.7583 129.56 70.2063 131 71.1023C132.472 71.9663 133.656 73.1343 134.552 74.6063C135.448 76.0783 135.896 77.7423 135.896 79.5983C135.896 81.5183 135.416 83.2463 134.456 84.7823C133.528 86.2863 132.28 87.4703 130.712 88.3343C129.144 89.1983 127.432 89.6303 125.576 89.6303ZM125.48 87.5183C126.952 87.5183 128.296 87.1823 129.512 86.5103C130.728 85.8063 131.688 84.8623 132.392 83.6783C133.128 82.4623 133.496 81.1023 133.496 79.5983C133.496 78.0943 133.128 76.7663 132.392 75.6143C131.688 74.4303 130.728 73.5023 129.512 72.8303C128.296 72.1263 126.952 71.7743 125.48 71.7743C124.008 71.7743 122.664 72.1103 121.448 72.7823C120.264 73.4223 119.304 74.3023 118.568 75.4223C117.864 76.5103 117.512 77.7583 117.512 79.1663V79.6943C117.512 81.1023 117.864 82.4143 118.568 83.6303C119.304 84.8143 120.264 85.7583 121.448 86.4623C122.664 87.1663 124.008 87.5183 125.48 87.5183ZM140.326 62.3663C140.326 61.0223 140.646 59.8223 141.286 58.7663C141.926 57.6783 142.79 56.8143 143.878 56.1743C144.966 55.5343 146.182 55.2143 147.526 55.2143C148.902 55.2143 150.134 55.5343 151.222 56.1743C152.31 56.8143 153.174 57.6783 153.814 58.7663C154.454 59.8223 154.774 61.0223 154.774 62.3663C154.774 63.6783 154.454 64.8783 153.814 65.9663C153.174 67.0223 152.31 67.8703 151.222 68.5103C150.134 69.1183 148.918 69.4223 147.574 69.4223C146.198 69.4223 144.966 69.1183 143.878 68.5103C142.79 67.9023 141.926 67.0703 141.286 66.0143C140.646 64.9583 140.326 63.7423 140.326 62.3663ZM142.198 62.3663C142.198 63.3583 142.438 64.2703 142.918 65.1023C143.398 65.9343 144.038 66.5903 144.838 67.0703C145.638 67.5503 146.534 67.7903 147.526 67.7903C148.518 67.7903 149.414 67.5503 150.214 67.0703C151.046 66.5903 151.702 65.9343 152.182 65.1023C152.662 64.2703 152.902 63.3583 152.902 62.3663C152.902 61.3423 152.662 60.4143 152.182 59.5823C151.702 58.7503 151.046 58.0943 150.214 57.6143C149.414 57.1023 148.518 56.8463 147.526 56.8463C146.502 56.8463 145.59 57.1023 144.79 57.6143C143.99 58.1263 143.35 58.8143 142.87 59.6783C142.422 60.5103 142.198 61.4063 142.198 62.3663ZM169.073 89.6303C167.121 89.6303 165.393 89.1983 163.889 88.3343C162.385 87.4703 161.201 86.3023 160.337 84.8303C159.505 83.3263 159.089 81.6463 159.089 79.7903C159.089 77.9663 159.537 76.3023 160.433 74.7983C161.329 73.2943 162.529 72.0943 164.033 71.1983C165.569 70.3023 167.265 69.8543 169.121 69.8543C171.361 69.8543 173.233 70.5103 174.737 71.8223C176.273 73.1343 177.377 74.8463 178.049 76.9583L161.633 83.2943L160.961 81.6623L175.985 75.8063L175.505 76.4783C174.961 75.1983 174.129 74.0943 173.009 73.1663C171.921 72.2383 170.577 71.7743 168.977 71.7743C167.537 71.7743 166.241 72.1263 165.089 72.8303C163.937 73.5343 163.009 74.4783 162.305 75.6623C161.633 76.8463 161.297 78.1903 161.297 79.6943C161.297 81.1023 161.617 82.4143 162.257 83.6303C162.929 84.8463 163.857 85.8223 165.041 86.5583C166.225 87.2943 167.585 87.6623 169.121 87.6623C170.145 87.6623 171.121 87.4703 172.049 87.0863C173.009 86.7023 173.857 86.2063 174.593 85.5983L175.745 87.2303C174.849 87.9343 173.809 88.5103 172.625 88.9583C171.473 89.4063 170.289 89.6303 169.073 89.6303ZM206.558 78.4943C204.83 78.4943 203.23 78.0623 201.758 77.1983C200.318 76.3023 199.15 75.1183 198.254 73.6463C197.358 72.1423 196.91 70.4783 196.91 68.6543C196.91 66.7023 197.374 64.9743 198.302 63.4703C199.262 61.9663 200.526 60.7823 202.094 59.9183C203.662 59.0543 205.374 58.6223 207.23 58.6223C209.182 58.6223 210.942 59.0383 212.51 59.8703C214.078 60.7023 215.326 61.8863 216.254 63.4223C217.182 64.9263 217.646 66.7183 217.646 68.7983C217.646 71.1663 217.166 73.3583 216.206 75.3743C215.246 77.3583 213.982 79.1983 212.414 80.8943C210.878 82.5903 209.182 84.1583 207.326 85.5983C205.47 87.0383 203.63 88.3983 201.806 89.6783L200.222 87.8543C203.006 86.1903 205.374 84.5263 207.326 82.8623C209.278 81.1983 210.83 79.5983 211.982 78.0623C213.134 76.5263 213.886 75.1343 214.238 73.8863L215.198 73.7423C214.142 75.3103 212.958 76.4943 211.646 77.2943C210.334 78.0943 208.638 78.4943 206.558 78.4943ZM207.326 76.4303C209.694 76.4303 211.614 75.7743 213.086 74.4623C214.558 73.1503 215.294 71.3263 215.294 68.9903V68.2703C215.23 66.7983 214.83 65.5023 214.094 64.3823C213.358 63.2623 212.398 62.3823 211.214 61.7423C210.062 61.1023 208.766 60.7823 207.326 60.7823C205.854 60.7823 204.51 61.1343 203.294 61.8383C202.078 62.5103 201.102 63.4383 200.366 64.6223C199.662 65.8063 199.31 67.1503 199.31 68.6543C199.31 70.1263 199.662 71.4543 200.366 72.6383C201.102 73.8223 202.078 74.7503 203.294 75.4223C204.51 76.0943 205.854 76.4303 207.326 76.4303ZM222.076 62.3663C222.076 61.0223 222.396 59.8223 223.036 58.7663C223.676 57.6783 224.54 56.8143 225.628 56.1743C226.716 55.5343 227.932 55.2143 229.276 55.2143C230.652 55.2143 231.884 55.5343 232.972 56.1743C234.06 56.8143 234.924 57.6783 235.564 58.7663C236.204 59.8223 236.524 61.0223 236.524 62.3663C236.524 63.6783 236.204 64.8783 235.564 65.9663C234.924 67.0223 234.06 67.8703 232.972 68.5103C231.884 69.1183 230.668 69.4223 229.324 69.4223C227.948 69.4223 226.716 69.1183 225.628 68.5103C224.54 67.9023 223.676 67.0703 223.036 66.0143C222.396 64.9583 222.076 63.7423 222.076 62.3663ZM223.948 62.3663C223.948 63.3583 224.188 64.2703 224.668 65.1023C225.148 65.9343 225.788 66.5903 226.588 67.0703C227.388 67.5503 228.284 67.7903 229.276 67.7903C230.268 67.7903 231.164 67.5503 231.964 67.0703C232.796 66.5903 233.452 65.9343 233.932 65.1023C234.412 64.2703 234.652 63.3583 234.652 62.3663C234.652 61.3423 234.412 60.4143 233.932 59.5823C233.452 58.7503 232.796 58.0943 231.964 57.6143C231.164 57.1023 230.268 56.8463 229.276 56.8463C228.252 56.8463 227.34 57.1023 226.54 57.6143C225.74 58.1263 225.1 58.8143 224.62 59.6783C224.172 60.5103 223.948 61.4063 223.948 62.3663ZM258.533 55.1663H279.557V57.4223H260.885V70.9583H277.685V73.2143H260.885V86.9903H280.229V89.2463H258.533V55.1663ZM286.31 87.6143C286.31 87.1663 286.47 86.7823 286.79 86.4623C287.11 86.1423 287.478 85.9823 287.894 85.9823C288.31 85.9823 288.678 86.1423 288.998 86.4623C289.35 86.7823 289.526 87.1663 289.526 87.6143C289.526 88.0943 289.35 88.4943 288.998 88.8143C288.678 89.1023 288.31 89.2463 287.894 89.2463C287.478 89.2463 287.11 89.1023 286.79 88.8143C286.47 88.4943 286.31 88.0943 286.31 87.6143ZM297.112 55.1663H316.216V57.4223H299.464V71.4863H314.296V73.6943H299.464V89.2463H297.112V55.1663ZM317.763 87.6143C317.763 87.1663 317.923 86.7823 318.243 86.4623C318.563 86.1423 318.931 85.9823 319.347 85.9823C319.763 85.9823 320.131 86.1423 320.451 86.4623C320.803 86.7823 320.979 87.1663 320.979 87.6143C320.979 88.0943 320.803 88.4943 320.451 88.8143C320.131 89.1023 319.763 89.2463 319.347 89.2463C318.931 89.2463 318.563 89.1023 318.243 88.8143C317.923 88.4943 317.763 88.0943 317.763 87.6143Z" fill="#0C1F17"/>
<path d="M117.592 36.6389C119.576 34.6229 121.48 32.6869 123.304 30.8309C125.128 28.9429 126.76 27.1349 128.2 25.4069C129.672 23.6469 130.824 21.9509 131.656 20.3189C132.52 18.6869 132.952 17.1029 132.952 15.5669C132.952 14.8949 132.824 14.2869 132.568 13.7429C132.344 13.1989 132.008 12.7349 131.56 12.3509C131.144 11.9669 130.632 11.6789 130.024 11.4869C129.448 11.2629 128.792 11.1509 128.056 11.1509C127.32 11.1509 126.664 11.2629 126.088 11.4869C125.512 11.6789 125.032 11.9509 124.648 12.3029C124.264 12.6549 123.96 13.0389 123.736 13.4549C123.544 13.8709 123.448 14.3029 123.448 14.7509C123.448 15.7749 123.608 16.6869 123.928 17.4869C124.28 18.2549 124.744 18.9429 125.32 19.5509L121.048 23.4389C120.12 22.9909 119.32 22.2389 118.648 21.1829C118.008 20.1269 117.512 19.0229 117.16 17.8709C116.84 16.6869 116.68 15.7109 116.68 14.9429C116.68 13.1829 117.16 11.5029 118.12 9.90291C119.112 8.30291 120.536 6.99091 122.392 5.96691C124.28 4.94291 126.568 4.43092 129.256 4.43092C131.464 4.43092 133.384 4.92692 135.016 5.91891C136.648 6.91091 137.912 8.22291 138.808 9.85491C139.736 11.4549 140.2 13.1669 140.2 14.9909C140.2 16.4309 139.976 17.8229 139.528 19.1669C139.08 20.5109 138.456 21.8389 137.656 23.1509C136.888 24.4309 136.008 25.7109 135.016 26.9909C134.024 28.2389 133 29.5189 131.944 30.8309L128.776 29.9189H140.584V36.6389H117.592ZM158.056 36.6869C156.232 36.6869 154.504 36.3669 152.872 35.7269C151.272 35.0869 149.848 34.1109 148.6 32.7989C147.384 31.4549 146.424 29.7749 145.72 27.7589C145.016 25.7109 144.664 23.3109 144.664 20.5589C144.664 17.4869 145 14.9269 145.672 12.8789C146.344 10.7989 147.272 9.13492 148.456 7.88691C149.672 6.63892 151.096 5.75891 152.728 5.24691C154.36 4.70292 156.136 4.43092 158.056 4.43092C159.88 4.43092 161.592 4.75092 163.192 5.39091C164.824 6.03091 166.248 7.02291 167.464 8.36691C168.712 9.67891 169.688 11.3589 170.392 13.4069C171.096 15.4229 171.448 17.8069 171.448 20.5589C171.448 23.4069 171.096 25.8549 170.392 27.9029C169.688 29.9509 168.712 31.6309 167.464 32.9429C166.216 34.2229 164.792 35.1669 163.192 35.7749C161.592 36.3829 159.88 36.6869 158.056 36.6869ZM158.008 30.0149C159.608 30.0149 160.856 29.5989 161.752 28.7669C162.648 27.9029 163.272 26.7349 163.624 25.2629C164.008 23.7909 164.2 22.1589 164.2 20.3669C164.2 18.6069 164.008 17.0389 163.624 15.6629C163.272 14.2869 162.648 13.1989 161.752 12.3989C160.856 11.5669 159.608 11.1509 158.008 11.1509C156.44 11.1509 155.208 11.5669 154.312 12.3989C153.416 13.2309 152.792 14.3509 152.44 15.7589C152.088 17.1669 151.912 18.7509 151.912 20.5109C151.912 22.2709 152.088 23.8709 152.44 25.3109C152.792 26.7509 153.416 27.9029 154.312 28.7669C155.208 29.5989 156.44 30.0149 158.008 30.0149ZM175.525 4.81491H185.077V36.6389H178.069V11.5349H175.525V4.81491ZM192.217 36.6389C194.201 34.6229 196.105 32.6869 197.929 30.8309C199.753 28.9429 201.385 27.1349 202.825 25.4069C204.297 23.6469 205.449 21.9509 206.281 20.3189C207.145 18.6869 207.577 17.1029 207.577 15.5669C207.577 14.8949 207.449 14.2869 207.193 13.7429C206.969 13.1989 206.633 12.7349 206.185 12.3509C205.769 11.9669 205.257 11.6789 204.649 11.4869C204.073 11.2629 203.417 11.1509 202.681 11.1509C201.945 11.1509 201.289 11.2629 200.713 11.4869C200.137 11.6789 199.657 11.9509 199.273 12.3029C198.889 12.6549 198.585 13.0389 198.361 13.4549C198.169 13.8709 198.073 14.3029 198.073 14.7509C198.073 15.7749 198.233 16.6869 198.553 17.4869C198.905 18.2549 199.369 18.9429 199.945 19.5509L195.673 23.4389C194.745 22.9909 193.945 22.2389 193.273 21.1829C192.633 20.1269 192.137 19.0229 191.785 17.8709C191.465 16.6869 191.305 15.7109 191.305 14.9429C191.305 13.1829 191.785 11.5029 192.745 9.90291C193.737 8.30291 195.161 6.99091 197.017 5.96691C198.905 4.94291 201.193 4.43092 203.881 4.43092C206.089 4.43092 208.009 4.92692 209.641 5.91891C211.273 6.91091 212.537 8.22291 213.433 9.85491C214.361 11.4549 214.825 13.1669 214.825 14.9909C214.825 16.4309 214.601 17.8229 214.153 19.1669C213.705 20.5109 213.081 21.8389 212.281 23.1509C211.513 24.4309 210.633 25.7109 209.641 26.9909C208.649 28.2389 207.625 29.5189 206.569 30.8309L203.401 29.9189H215.209V36.6389H192.217ZM238.105 0.590914C235.833 6.76691 233.561 12.9269 231.289 19.0709C229.017 25.2149 226.745 31.3749 224.473 37.5509H218.425C220.697 31.3749 222.969 25.2149 225.241 19.0709C227.513 12.9269 229.785 6.76691 232.057 0.590914H238.105ZM240.405 36.6389C242.389 34.6229 244.293 32.6869 246.117 30.8309C247.941 28.9429 249.573 27.1349 251.013 25.4069C252.485 23.6469 253.637 21.9509 254.469 20.3189C255.333 18.6869 255.765 17.1029 255.765 15.5669C255.765 14.8949 255.637 14.2869 255.381 13.7429C255.157 13.1989 254.821 12.7349 254.373 12.3509C253.957 11.9669 253.445 11.6789 252.837 11.4869C252.261 11.2629 251.605 11.1509 250.869 11.1509C250.133 11.1509 249.477 11.2629 248.901 11.4869C248.325 11.6789 247.845 11.9509 247.461 12.3029C247.077 12.6549 246.773 13.0389 246.549 13.4549C246.357 13.8709 246.261 14.3029 246.261 14.7509C246.261 15.7749 246.421 16.6869 246.741 17.4869C247.093 18.2549 247.557 18.9429 248.133 19.5509L243.861 23.4389C242.933 22.9909 242.133 22.2389 241.461 21.1829C240.821 20.1269 240.325 19.0229 239.973 17.8709C239.653 16.6869 239.493 15.7109 239.493 14.9429C239.493 13.1829 239.973 11.5029 240.933 9.90291C241.925 8.30291 243.349 6.99091 245.205 5.96691C247.093 4.94291 249.381 4.43092 252.069 4.43092C254.277 4.43092 256.197 4.92692 257.829 5.91891C259.461 6.91091 260.725 8.22291 261.621 9.85491C262.549 11.4549 263.013 13.1669 263.013 14.9909C263.013 16.4309 262.789 17.8229 262.341 19.1669C261.893 20.5109 261.269 21.8389 260.469 23.1509C259.701 24.4309 258.821 25.7109 257.829 26.9909C256.837 28.2389 255.813 29.5189 254.757 30.8309L251.589 29.9189H263.397V36.6389H240.405ZM280.869 36.6869C279.045 36.6869 277.317 36.3669 275.685 35.7269C274.085 35.0869 272.661 34.1109 271.413 32.7989C270.197 31.4549 269.237 29.7749 268.533 27.7589C267.829 25.7109 267.477 23.3109 267.477 20.5589C267.477 17.4869 267.813 14.9269 268.485 12.8789C269.157 10.7989 270.085 9.13492 271.269 7.88691C272.485 6.63892 273.909 5.75891 275.541 5.24691C277.173 4.70292 278.949 4.43092 280.869 4.43092C282.693 4.43092 284.405 4.75092 286.005 5.39091C287.637 6.03091 289.061 7.02291 290.277 8.36691C291.525 9.67891 292.501 11.3589 293.205 13.4069C293.909 15.4229 294.261 17.8069 294.261 20.5589C294.261 23.4069 293.909 25.8549 293.205 27.9029C292.501 29.9509 291.525 31.6309 290.277 32.9429C289.029 34.2229 287.605 35.1669 286.005 35.7749C284.405 36.3829 282.693 36.6869 280.869 36.6869ZM280.821 30.0149C282.421 30.0149 283.669 29.5989 284.565 28.7669C285.461 27.9029 286.085 26.7349 286.437 25.2629C286.821 23.7909 287.013 22.1589 287.013 20.3669C287.013 18.6069 286.821 17.0389 286.437 15.6629C286.085 14.2869 285.461 13.1989 284.565 12.3989C283.669 11.5669 282.421 11.1509 280.821 11.1509C279.253 11.1509 278.021 11.5669 277.125 12.3989C276.229 13.2309 275.605 14.3509 275.253 15.7589C274.901 17.1669 274.725 18.7509 274.725 20.5109C274.725 22.2709 274.901 23.8709 275.253 25.3109C275.605 26.7509 276.229 27.9029 277.125 28.7669C278.021 29.5989 279.253 30.0149 280.821 30.0149ZM298.338 4.81491H307.89V36.6389H300.882V11.5349H298.338V4.81491ZM324.054 37.0229C322.166 37.0229 320.326 36.6709 318.534 35.9669C316.742 35.2629 315.35 34.4149 314.358 33.4229L317.958 27.8549C318.534 28.5589 319.35 29.1509 320.406 29.6309C321.494 30.0789 322.534 30.3029 323.526 30.3029C324.262 30.3029 324.95 30.1429 325.59 29.8229C326.23 29.5029 326.742 29.0229 327.126 28.3829C327.51 27.7429 327.702 26.9589 327.702 26.0309C327.702 25.0069 327.494 24.1109 327.078 23.3429C326.694 22.5749 326.118 21.9829 325.35 21.5669C324.614 21.1189 323.734 20.8949 322.71 20.8949C321.718 20.8949 320.774 21.0389 319.878 21.3269C318.982 21.5829 317.926 22.0309 316.71 22.6709H316.662V4.81491H332.55V11.5349H322.662V16.6709L321.846 15.2309C322.294 15.1669 322.726 15.1189 323.142 15.0869C323.558 15.0549 323.974 15.0389 324.39 15.0389C326.63 15.0389 328.518 15.5349 330.054 16.5269C331.622 17.5189 332.822 18.8309 333.654 20.4629C334.486 22.0949 334.902 23.8709 334.902 25.7909C334.902 27.9029 334.422 29.8069 333.462 31.5029C332.502 33.1989 331.19 34.5429 329.526 35.5349C327.894 36.5269 326.07 37.0229 324.054 37.0229Z" fill="#0C1F17"/>
<path d="M191.688 242.576H198.696V273.92H196.344V244.832H191.688V242.576ZM206.061 247.04C206.061 245.696 206.381 244.496 207.021 243.44C207.661 242.352 208.525 241.488 209.613 240.848C210.701 240.208 211.917 239.888 213.261 239.888C214.637 239.888 215.869 240.208 216.957 240.848C218.045 241.488 218.909 242.352 219.549 243.44C220.189 244.496 220.509 245.696 220.509 247.04C220.509 248.352 220.189 249.552 219.549 250.64C218.909 251.696 218.045 252.544 216.957 253.184C215.869 253.792 214.653 254.096 213.309 254.096C211.933 254.096 210.701 253.792 209.613 253.184C208.525 252.576 207.661 251.744 207.021 250.688C206.381 249.632 206.061 248.416 206.061 247.04ZM207.933 247.04C207.933 248.032 208.173 248.944 208.653 249.776C209.133 250.608 209.773 251.264 210.573 251.744C211.373 252.224 212.269 252.464 213.261 252.464C214.253 252.464 215.149 252.224 215.949 251.744C216.781 251.264 217.437 250.608 217.917 249.776C218.397 248.944 218.637 248.032 218.637 247.04C218.637 246.016 218.397 245.088 217.917 244.256C217.437 243.424 216.781 242.768 215.949 242.288C215.149 241.776 214.253 241.52 213.261 241.52C212.237 241.52 211.325 241.776 210.525 242.288C209.725 242.8 209.085 243.488 208.605 244.352C208.157 245.184 207.933 246.08 207.933 247.04ZM234.807 274.304C232.855 274.304 231.127 273.872 229.623 273.008C228.119 272.144 226.935 270.976 226.071 269.504C225.239 268 224.823 266.32 224.823 264.464C224.823 262.64 225.271 260.976 226.167 259.472C227.063 257.968 228.263 256.768 229.767 255.872C231.303 254.976 232.999 254.528 234.855 254.528C237.095 254.528 238.967 255.184 240.471 256.496C242.007 257.808 243.111 259.52 243.783 261.632L227.367 267.968L226.695 266.336L241.719 260.48L241.239 261.152C240.695 259.872 239.863 258.768 238.743 257.84C237.655 256.912 236.311 256.448 234.711 256.448C233.271 256.448 231.975 256.8 230.823 257.504C229.671 258.208 228.743 259.152 228.039 260.336C227.367 261.52 227.031 262.864 227.031 264.368C227.031 265.776 227.351 267.088 227.991 268.304C228.663 269.52 229.591 270.496 230.775 271.232C231.959 271.968 233.319 272.336 234.855 272.336C235.879 272.336 236.855 272.144 237.783 271.76C238.743 271.376 239.591 270.88 240.327 270.272L241.479 271.904C240.583 272.608 239.543 273.184 238.359 273.632C237.207 274.08 236.023 274.304 234.807 274.304ZM280.548 242.576L270.852 255.92L269.076 255.392C269.62 255.072 270.212 254.848 270.852 254.72C271.492 254.56 272.164 254.48 272.868 254.48C274.116 254.416 275.3 254.56 276.42 254.912C277.54 255.232 278.532 255.776 279.396 256.544C280.292 257.28 280.98 258.224 281.46 259.376C281.972 260.528 282.228 261.904 282.228 263.504C282.228 265.68 281.748 267.584 280.788 269.216C279.828 270.816 278.516 272.064 276.852 272.96C275.22 273.856 273.364 274.304 271.284 274.304C269.812 274.304 268.404 274.016 267.06 273.44C265.716 272.832 264.58 272.032 263.652 271.04L264.852 269.12C265.556 269.952 266.484 270.656 267.636 271.232C268.788 271.776 269.988 272.048 271.236 272.048C272.9 272.048 274.372 271.696 275.652 270.992C276.964 270.256 277.988 269.232 278.724 267.92C279.46 266.608 279.828 265.104 279.828 263.408C279.828 261.168 279.14 259.408 277.764 258.128C276.388 256.848 274.548 256.208 272.244 256.208C271.348 256.208 270.516 256.304 269.748 256.496C268.98 256.688 268.324 256.912 267.78 257.168L267.588 257.024L276.9 244.352L277.764 244.784H264.708V242.576H280.548ZM287.342 247.04C287.342 245.696 287.662 244.496 288.302 243.44C288.942 242.352 289.806 241.488 290.894 240.848C291.982 240.208 293.198 239.888 294.542 239.888C295.918 239.888 297.15 240.208 298.238 240.848C299.326 241.488 300.19 242.352 300.83 243.44C301.47 244.496 301.79 245.696 301.79 247.04C301.79 248.352 301.47 249.552 300.83 250.64C300.19 251.696 299.326 252.544 298.238 253.184C297.15 253.792 295.934 254.096 294.59 254.096C293.214 254.096 291.982 253.792 290.894 253.184C289.806 252.576 288.942 251.744 288.302 250.688C287.662 249.632 287.342 248.416 287.342 247.04ZM289.214 247.04C289.214 248.032 289.454 248.944 289.934 249.776C290.414 250.608 291.054 251.264 291.854 251.744C292.654 252.224 293.55 252.464 294.542 252.464C295.534 252.464 296.43 252.224 297.23 251.744C298.062 251.264 298.718 250.608 299.198 249.776C299.678 248.944 299.918 248.032 299.918 247.04C299.918 246.016 299.678 245.088 299.198 244.256C298.718 243.424 298.062 242.768 297.23 242.288C296.43 241.776 295.534 241.52 294.542 241.52C293.518 241.52 292.606 241.776 291.806 242.288C291.006 242.8 290.366 243.488 289.886 244.352C289.438 245.184 289.214 246.08 289.214 247.04ZM323.799 239.84H344.823V242.096H326.151V255.632H342.951V257.888H326.151V271.664H345.495V273.92H323.799V239.84ZM351.575 272.288C351.575 271.84 351.735 271.456 352.055 271.136C352.375 270.816 352.743 270.656 353.159 270.656C353.575 270.656 353.943 270.816 354.263 271.136C354.615 271.456 354.791 271.84 354.791 272.288C354.791 272.768 354.615 273.168 354.263 273.488C353.943 273.776 353.575 273.92 353.159 273.92C352.743 273.92 352.375 273.776 352.055 273.488C351.735 273.168 351.575 272.768 351.575 272.288ZM362.377 273.92V239.072H362.425L379.225 262.928L378.217 262.784L394.969 239.072H395.017V273.92H392.713V244.496L392.905 245.648L378.697 265.664H378.601L364.297 245.648L364.681 244.592V273.92H362.377ZM402.997 272.288C402.997 271.84 403.157 271.456 403.477 271.136C403.797 270.816 404.165 270.656 404.581 270.656C404.997 270.656 405.365 270.816 405.685 271.136C406.037 271.456 406.213 271.84 406.213 272.288C406.213 272.768 406.037 273.168 405.685 273.488C405.365 273.776 404.997 273.92 404.581 273.92C404.165 273.92 403.797 273.776 403.477 273.488C403.157 273.168 402.997 272.768 402.997 272.288Z" fill="#0C1F17"/>
<path d="M168.592 218.218C170.576 216.202 172.48 214.266 174.304 212.41C176.128 210.522 177.76 208.714 179.2 206.986C180.672 205.226 181.824 203.53 182.656 201.898C183.52 200.266 183.952 198.682 183.952 197.146C183.952 196.474 183.824 195.866 183.568 195.322C183.344 194.778 183.008 194.314 182.56 193.93C182.144 193.546 181.632 193.258 181.024 193.066C180.448 192.842 179.792 192.73 179.056 192.73C178.32 192.73 177.664 192.842 177.088 193.066C176.512 193.258 176.032 193.53 175.648 193.882C175.264 194.234 174.96 194.618 174.736 195.034C174.544 195.45 174.448 195.882 174.448 196.33C174.448 197.354 174.608 198.266 174.928 199.066C175.28 199.834 175.744 200.522 176.32 201.13L172.048 205.018C171.12 204.57 170.32 203.818 169.648 202.762C169.008 201.706 168.512 200.602 168.16 199.45C167.84 198.266 167.68 197.29 167.68 196.522C167.68 194.762 168.16 193.082 169.12 191.482C170.112 189.882 171.536 188.57 173.392 187.546C175.28 186.522 177.568 186.01 180.256 186.01C182.464 186.01 184.384 186.506 186.016 187.498C187.648 188.49 188.912 189.802 189.808 191.434C190.736 193.034 191.2 194.746 191.2 196.57C191.2 198.01 190.976 199.402 190.528 200.746C190.08 202.09 189.456 203.418 188.656 204.73C187.888 206.01 187.008 207.29 186.016 208.57C185.024 209.818 184 211.098 182.944 212.41L179.776 211.498H191.584V218.218H168.592ZM209.056 218.266C207.232 218.266 205.504 217.946 203.872 217.306C202.272 216.666 200.848 215.69 199.6 214.378C198.384 213.034 197.424 211.354 196.72 209.338C196.016 207.29 195.664 204.89 195.664 202.138C195.664 199.066 196 196.506 196.672 194.458C197.344 192.378 198.272 190.714 199.456 189.466C200.672 188.218 202.096 187.338 203.728 186.826C205.36 186.282 207.136 186.01 209.056 186.01C210.88 186.01 212.592 186.33 214.192 186.97C215.824 187.61 217.248 188.602 218.464 189.946C219.712 191.258 220.688 192.938 221.392 194.986C222.096 197.002 222.448 199.386 222.448 202.138C222.448 204.986 222.096 207.434 221.392 209.482C220.688 211.53 219.712 213.21 218.464 214.522C217.216 215.802 215.792 216.746 214.192 217.354C212.592 217.962 210.88 218.266 209.056 218.266ZM209.008 211.594C210.608 211.594 211.856 211.178 212.752 210.346C213.648 209.482 214.272 208.314 214.624 206.842C215.008 205.37 215.2 203.738 215.2 201.946C215.2 200.186 215.008 198.618 214.624 197.242C214.272 195.866 213.648 194.778 212.752 193.978C211.856 193.146 210.608 192.73 209.008 192.73C207.44 192.73 206.208 193.146 205.312 193.978C204.416 194.81 203.792 195.93 203.44 197.338C203.088 198.746 202.912 200.33 202.912 202.09C202.912 203.85 203.088 205.45 203.44 206.89C203.792 208.33 204.416 209.482 205.312 210.346C206.208 211.178 207.44 211.594 209.008 211.594ZM226.525 186.394H236.077V218.218H229.069V193.114H226.525V186.394ZM254.353 218.602C252.049 218.602 249.969 218.058 248.113 216.97C246.257 215.882 244.785 214.282 243.697 212.17C242.609 210.058 242.065 207.482 242.065 204.442C242.065 202.554 242.417 200.73 243.121 198.97C243.857 197.178 244.849 195.482 246.097 193.882C247.377 192.25 248.849 190.73 250.513 189.322C252.177 187.914 253.953 186.65 255.841 185.53L260.497 190.57C257.937 191.562 255.841 192.842 254.209 194.41C252.577 195.946 251.377 197.546 250.609 199.21C249.841 200.874 249.457 202.41 249.457 203.818L247.729 203.626C248.593 201.61 249.697 200.042 251.041 198.922C252.417 197.802 254.321 197.242 256.753 197.242C258.289 197.242 259.777 197.674 261.217 198.538C262.657 199.402 263.825 200.602 264.721 202.138C265.649 203.674 266.113 205.466 266.113 207.514C266.113 209.882 265.537 211.898 264.385 213.562C263.265 215.194 261.809 216.442 260.017 217.306C258.225 218.17 256.337 218.602 254.353 218.602ZM254.065 212.362C254.993 212.362 255.809 212.186 256.513 211.834C257.249 211.45 257.825 210.906 258.241 210.202C258.657 209.466 258.865 208.586 258.865 207.562C258.865 206.57 258.641 205.754 258.193 205.114C257.777 204.442 257.201 203.946 256.465 203.626C255.761 203.274 254.961 203.098 254.065 203.098C253.169 203.098 252.353 203.274 251.617 203.626C250.913 203.946 250.337 204.394 249.889 204.97C249.473 205.514 249.265 206.106 249.265 206.746V207.898C249.265 208.666 249.473 209.386 249.889 210.058C250.305 210.73 250.881 211.29 251.617 211.738C252.353 212.154 253.169 212.362 254.065 212.362ZM288.027 182.17C285.755 188.346 283.483 194.506 281.211 200.65C278.939 206.794 276.667 212.954 274.395 219.13H268.347C270.619 212.954 272.891 206.794 275.163 200.65C277.435 194.506 279.707 188.346 281.979 182.17H288.027ZM290.326 218.218C292.31 216.202 294.214 214.266 296.038 212.41C297.862 210.522 299.494 208.714 300.934 206.986C302.406 205.226 303.558 203.53 304.39 201.898C305.254 200.266 305.686 198.682 305.686 197.146C305.686 196.474 305.558 195.866 305.302 195.322C305.078 194.778 304.742 194.314 304.294 193.93C303.878 193.546 303.366 193.258 302.758 193.066C302.182 192.842 301.526 192.73 300.79 192.73C300.054 192.73 299.398 192.842 298.822 193.066C298.246 193.258 297.766 193.53 297.382 193.882C296.998 194.234 296.694 194.618 296.47 195.034C296.278 195.45 296.182 195.882 296.182 196.33C296.182 197.354 296.342 198.266 296.662 199.066C297.014 199.834 297.478 200.522 298.054 201.13L293.782 205.018C292.854 204.57 292.054 203.818 291.382 202.762C290.742 201.706 290.246 200.602 289.894 199.45C289.574 198.266 289.414 197.29 289.414 196.522C289.414 194.762 289.894 193.082 290.854 191.482C291.846 189.882 293.27 188.57 295.126 187.546C297.014 186.522 299.302 186.01 301.99 186.01C304.198 186.01 306.118 186.506 307.75 187.498C309.382 188.49 310.646 189.802 311.542 191.434C312.47 193.034 312.934 194.746 312.934 196.57C312.934 198.01 312.71 199.402 312.262 200.746C311.814 202.09 311.19 203.418 310.39 204.73C309.622 206.01 308.742 207.29 307.75 208.57C306.758 209.818 305.734 211.098 304.678 212.41L301.51 211.498H313.318V218.218H290.326ZM330.791 218.266C328.967 218.266 327.239 217.946 325.607 217.306C324.007 216.666 322.583 215.69 321.335 214.378C320.119 213.034 319.159 211.354 318.455 209.338C317.751 207.29 317.399 204.89 317.399 202.138C317.399 199.066 317.735 196.506 318.407 194.458C319.079 192.378 320.007 190.714 321.191 189.466C322.407 188.218 323.831 187.338 325.463 186.826C327.095 186.282 328.871 186.01 330.791 186.01C332.615 186.01 334.327 186.33 335.927 186.97C337.559 187.61 338.983 188.602 340.199 189.946C341.447 191.258 342.423 192.938 343.127 194.986C343.831 197.002 344.183 199.386 344.183 202.138C344.183 204.986 343.831 207.434 343.127 209.482C342.423 211.53 341.447 213.21 340.199 214.522C338.951 215.802 337.527 216.746 335.927 217.354C334.327 217.962 332.615 218.266 330.791 218.266ZM330.743 211.594C332.343 211.594 333.591 211.178 334.487 210.346C335.383 209.482 336.007 208.314 336.359 206.842C336.743 205.37 336.935 203.738 336.935 201.946C336.935 200.186 336.743 198.618 336.359 197.242C336.007 195.866 335.383 194.778 334.487 193.978C333.591 193.146 332.343 192.73 330.743 192.73C329.175 192.73 327.943 193.146 327.047 193.978C326.151 194.81 325.527 195.93 325.175 197.338C324.823 198.746 324.647 200.33 324.647 202.09C324.647 203.85 324.823 205.45 325.175 206.89C325.527 208.33 326.151 209.482 327.047 210.346C327.943 211.178 329.175 211.594 330.743 211.594ZM348.259 186.394H357.811V218.218H350.803V193.114H348.259V186.394ZM363.079 207.898C363.079 206.234 363.383 204.826 363.991 203.674C364.599 202.522 365.335 201.578 366.199 200.842C367.095 200.074 367.911 199.466 368.647 199.018C367.943 198.282 367.335 197.53 366.823 196.762C366.343 195.962 366.103 194.842 366.103 193.402C366.103 191.962 366.503 190.682 367.303 189.562C368.135 188.442 369.239 187.578 370.615 186.97C371.991 186.33 373.511 186.01 375.175 186.01C376.839 186.01 378.359 186.33 379.735 186.97C381.143 187.578 382.263 188.41 383.095 189.466C383.959 190.522 384.391 191.722 384.391 193.066C384.391 194.666 384.119 195.866 383.575 196.666C383.063 197.466 382.423 198.25 381.655 199.018C382.423 199.498 383.223 200.122 384.055 200.89C384.919 201.658 385.655 202.618 386.263 203.77C386.871 204.89 387.175 206.266 387.175 207.898C387.175 209.754 386.647 211.498 385.591 213.13C384.535 214.762 383.095 216.09 381.271 217.114C379.479 218.106 377.415 218.602 375.079 218.602C372.743 218.602 370.663 218.106 368.839 217.114C367.047 216.09 365.639 214.762 364.615 213.13C363.591 211.498 363.079 209.754 363.079 207.898ZM370.231 207.61C370.231 208.538 370.455 209.402 370.903 210.202C371.351 210.97 371.943 211.594 372.679 212.074C373.415 212.522 374.231 212.746 375.127 212.746C376.055 212.746 376.903 212.522 377.671 212.074C378.439 211.594 379.047 210.97 379.495 210.202C379.975 209.402 380.215 208.538 380.215 207.61C380.215 206.682 379.991 205.85 379.543 205.114C379.127 204.346 378.551 203.722 377.815 203.242C377.111 202.762 376.311 202.506 375.415 202.474C374.519 202.442 373.671 202.65 372.871 203.098C372.103 203.546 371.463 204.17 370.951 204.97C370.471 205.738 370.231 206.618 370.231 207.61ZM372.871 194.266C372.871 194.906 373.127 195.466 373.639 195.946C374.183 196.426 374.743 196.666 375.319 196.666C375.895 196.666 376.439 196.426 376.951 195.946C377.463 195.466 377.719 194.906 377.719 194.266C377.719 193.626 377.463 193.066 376.951 192.586C376.471 192.074 375.927 191.818 375.319 191.818C374.711 191.818 374.151 192.074 373.639 192.586C373.127 193.066 372.871 193.626 372.871 194.266Z" fill="#0C1F17"/>
<path d="M206.866 132.18C207.753 131.122 207.637 129.519 206.606 128.6C205.576 127.681 204.022 127.793 203.134 128.851L206.866 132.18ZM149.567 196.631C144.072 191.729 135.782 192.329 131.051 197.972C126.319 203.615 126.939 212.163 132.433 217.065C137.928 221.968 146.218 221.367 150.949 215.724C155.681 210.081 155.061 201.533 149.567 196.631ZM203.134 128.851L139.134 205.184L142.866 208.512L206.866 132.18L203.134 128.851Z" fill="black"/>
<path d="M596.267 135.211C597.119 134.124 596.949 132.527 595.889 131.642C594.828 130.758 593.278 130.922 592.427 132.009L596.267 135.211ZM549.224 191.195C543.568 186.48 535.301 187.356 530.759 193.152C526.218 198.948 527.121 207.47 532.776 212.186C538.432 216.901 546.699 216.025 551.241 210.229C555.783 204.433 554.88 195.911 549.224 191.195ZM592.427 132.009L539.08 200.09L542.92 203.291L596.267 135.211L592.427 132.009Z" fill="black"/>
<line y1="-0.5" x2="4.58525" y2="-0.5" transform="matrix(-0.436182 0.899859 -0.888755 -0.458383 794 268.739)" stroke="black"/>
<path d="M557.904 80.8013C557.168 81.2493 556.32 81.6813 555.36 82.0973C554.4 82.5133 553.344 82.8333 552.192 83.0573C551.04 83.3133 549.792 83.4413 548.448 83.4413C545.856 83.4413 543.504 82.9933 541.392 82.0973C539.28 81.1693 537.472 79.9213 535.968 78.3533C534.464 76.7533 533.296 74.9293 532.464 72.8813C531.664 70.8013 531.264 68.5933 531.264 66.2572C531.264 63.7612 531.696 61.4412 532.56 59.2972C533.424 57.1532 534.64 55.2812 536.208 53.6812C537.776 52.0812 539.6 50.8332 541.68 49.9372C543.76 49.0412 546.016 48.5932 548.448 48.5932C550.24 48.5932 551.92 48.8332 553.488 49.3133C555.056 49.7933 556.48 50.4172 557.76 51.1852L556.752 53.3453C555.632 52.6412 554.368 52.0492 552.96 51.5693C551.552 51.0893 550.064 50.8493 548.496 50.8493C546.48 50.8493 544.576 51.2493 542.784 52.0492C540.992 52.8172 539.408 53.9052 538.032 55.3133C536.688 56.6892 535.632 58.3052 534.864 60.1612C534.096 62.0172 533.712 64.0172 533.712 66.1612C533.712 68.2092 534.048 70.1453 534.72 71.9693C535.424 73.7933 536.416 75.3933 537.696 76.7693C539.008 78.1453 540.576 79.2333 542.4 80.0333C544.224 80.8013 546.256 81.1853 548.496 81.1853C550.16 81.1853 551.68 80.9613 553.056 80.5133C554.464 80.0333 555.712 79.4413 556.8 78.7373L557.904 80.8013ZM571.364 83.5853C569.604 83.5853 568.196 83.0733 567.14 82.0493C566.084 80.9933 565.524 79.6333 565.46 77.9693V64.2892H567.716V77.2973C567.78 78.5133 568.164 79.5213 568.868 80.3213C569.604 81.1213 570.692 81.5533 572.132 81.6173C573.348 81.6173 574.484 81.2973 575.54 80.6573C576.596 80.0173 577.444 79.1533 578.084 78.0653C578.756 76.9453 579.092 75.6813 579.092 74.2733V64.2892H581.348V83.0573H579.332L579.092 77.1533L579.428 78.4493C579.108 79.4093 578.532 80.2893 577.7 81.0893C576.9 81.8573 575.94 82.4653 574.82 82.9133C573.732 83.3613 572.58 83.5853 571.364 83.5853ZM591.85 64.2892L592.09 70.0492L591.802 69.3293C592.218 68.1772 592.874 67.1852 593.77 66.3533C594.666 65.5213 595.658 64.8813 596.746 64.4333C597.866 63.9853 598.938 63.7613 599.962 63.7613L599.866 65.9693C598.426 65.9693 597.114 66.2893 595.93 66.9292C594.778 67.5693 593.85 68.4333 593.146 69.5213C592.474 70.5773 592.138 71.7773 592.138 73.1213V83.0573H589.882V64.2892H591.85ZM610.704 83.4413C609.616 83.4413 608.48 83.2493 607.296 82.8653C606.112 82.4493 605.152 81.7933 604.416 80.8973L605.472 79.4093C606.112 80.0813 606.864 80.6253 607.728 81.0413C608.624 81.4253 609.568 81.6173 610.56 81.6173C611.296 81.6173 611.984 81.5213 612.624 81.3293C613.296 81.1053 613.84 80.7373 614.256 80.2253C614.672 79.7133 614.88 79.0253 614.88 78.1613C614.88 77.2653 614.624 76.5773 614.112 76.0973C613.632 75.6173 613.008 75.2333 612.24 74.9453C611.504 74.6253 610.72 74.3373 609.888 74.0813C608.512 73.6333 607.376 73.0253 606.48 72.2573C605.616 71.4893 605.184 70.4013 605.184 68.9933C605.184 67.9693 605.424 67.0733 605.904 66.3053C606.416 65.5373 607.104 64.9453 607.968 64.5293C608.832 64.0813 609.808 63.8573 610.896 63.8573C611.888 63.8573 612.864 64.0173 613.824 64.3373C614.816 64.6572 615.712 65.2013 616.512 65.9693L615.504 67.5533C614.992 66.8492 614.304 66.3692 613.44 66.1133C612.608 65.8572 611.872 65.7132 611.232 65.6813C610.688 65.6813 610.112 65.7933 609.504 66.0173C608.928 66.2413 608.432 66.5773 608.016 67.0252C607.632 67.4413 607.44 68.0013 607.44 68.7052C607.44 69.4412 607.648 70.0493 608.064 70.5293C608.48 70.9773 609.008 71.3453 609.648 71.6333C610.32 71.9213 611.008 72.1933 611.712 72.4493C612.64 72.7373 613.504 73.0893 614.304 73.5053C615.136 73.8893 615.808 74.4173 616.32 75.0893C616.864 75.7293 617.136 76.5933 617.136 77.6813C617.136 78.7693 616.896 79.7613 616.416 80.6573C615.936 81.5213 615.216 82.2093 614.256 82.7213C613.328 83.2013 612.144 83.4413 610.704 83.4413ZM622.136 73.5533C622.136 71.7292 622.568 70.0652 623.432 68.5613C624.328 67.0573 625.528 65.8733 627.032 65.0093C628.568 64.1133 630.28 63.6653 632.168 63.6653C634.088 63.6653 635.8 64.1133 637.304 65.0093C638.808 65.8733 639.992 67.0573 640.856 68.5613C641.72 70.0652 642.152 71.7292 642.152 73.5533C642.152 75.3773 641.72 77.0413 640.856 78.5453C639.992 80.0493 638.792 81.2493 637.256 82.1453C635.752 83.0093 634.056 83.4413 632.168 83.4413C630.248 83.4413 628.536 83.0253 627.032 82.1933C625.528 81.3293 624.328 80.1613 623.432 78.6893C622.568 77.1853 622.136 75.4733 622.136 73.5533ZM624.392 73.6013C624.392 75.0733 624.728 76.4173 625.4 77.6333C626.104 78.8173 627.032 79.7613 628.184 80.4653C629.368 81.1693 630.68 81.5213 632.12 81.5213C633.56 81.5213 634.856 81.1693 636.008 80.4653C637.192 79.7613 638.12 78.8173 638.792 77.6333C639.496 76.4173 639.848 75.0733 639.848 73.6013C639.848 72.1293 639.496 70.8013 638.792 69.6173C638.12 68.4013 637.192 67.4413 636.008 66.7373C634.856 66.0013 633.56 65.6333 632.12 65.6333C630.648 65.6333 629.32 66.0173 628.136 66.7853C626.984 67.5213 626.072 68.4973 625.4 69.7132C624.728 70.9293 624.392 72.2253 624.392 73.6013ZM689.201 80.8013C688.465 81.2493 687.617 81.6813 686.657 82.0973C685.697 82.5133 684.641 82.8333 683.489 83.0573C682.337 83.3133 681.089 83.4413 679.745 83.4413C677.153 83.4413 674.801 82.9933 672.689 82.0973C670.577 81.1693 668.769 79.9213 667.265 78.3533C665.761 76.7533 664.593 74.9293 663.761 72.8813C662.961 70.8013 662.561 68.5933 662.561 66.2572C662.561 63.7612 662.993 61.4412 663.857 59.2972C664.721 57.1532 665.937 55.2812 667.505 53.6812C669.073 52.0812 670.897 50.8332 672.977 49.9372C675.057 49.0412 677.313 48.5932 679.745 48.5932C681.537 48.5932 683.217 48.8332 684.785 49.3133C686.353 49.7933 687.777 50.4172 689.057 51.1852L688.049 53.3453C686.929 52.6412 685.665 52.0492 684.257 51.5693C682.849 51.0893 681.361 50.8493 679.793 50.8493C677.777 50.8493 675.873 51.2493 674.081 52.0492C672.289 52.8172 670.705 53.9052 669.329 55.3133C667.985 56.6892 666.929 58.3052 666.161 60.1612C665.393 62.0172 665.009 64.0172 665.009 66.1612C665.009 68.2092 665.345 70.1453 666.017 71.9693C666.721 73.7933 667.713 75.3933 668.993 76.7693C670.305 78.1453 671.873 79.2333 673.697 80.0333C675.521 80.8013 677.553 81.1853 679.793 81.1853C681.457 81.1853 682.977 80.9613 684.353 80.5133C685.761 80.0333 687.009 79.4413 688.097 78.7373L689.201 80.8013ZM694.933 73.5533C694.933 71.7292 695.365 70.0652 696.229 68.5613C697.125 67.0573 698.325 65.8733 699.829 65.0093C701.365 64.1133 703.077 63.6653 704.965 63.6653C706.885 63.6653 708.597 64.1133 710.101 65.0093C711.605 65.8733 712.789 67.0573 713.653 68.5613C714.517 70.0652 714.949 71.7292 714.949 73.5533C714.949 75.3773 714.517 77.0413 713.653 78.5453C712.789 80.0493 711.589 81.2493 710.053 82.1453C708.549 83.0093 706.853 83.4413 704.965 83.4413C703.045 83.4413 701.333 83.0253 699.829 82.1933C698.325 81.3293 697.125 80.1613 696.229 78.6893C695.365 77.1853 694.933 75.4733 694.933 73.5533ZM697.189 73.6013C697.189 75.0733 697.525 76.4173 698.197 77.6333C698.901 78.8173 699.829 79.7613 700.981 80.4653C702.165 81.1693 703.477 81.5213 704.917 81.5213C706.357 81.5213 707.653 81.1693 708.805 80.4653C709.989 79.7613 710.917 78.8173 711.589 77.6333C712.293 76.4173 712.645 75.0733 712.645 73.6013C712.645 72.1293 712.293 70.8013 711.589 69.6173C710.917 68.4013 709.989 67.4413 708.805 66.7373C707.653 66.0013 706.357 65.6333 704.917 65.6333C703.445 65.6333 702.117 66.0173 700.933 66.7853C699.781 67.5213 698.869 68.4973 698.197 69.7132C697.525 70.9293 697.189 72.2253 697.189 73.6013ZM723.615 64.2892L723.855 70.0492L723.567 69.3293C723.983 68.1772 724.639 67.1852 725.535 66.3533C726.431 65.5213 727.423 64.8813 728.511 64.4333C729.631 63.9853 730.703 63.7613 731.727 63.7613L731.631 65.9693C730.191 65.9693 728.879 66.2893 727.695 66.9292C726.543 67.5693 725.615 68.4333 724.911 69.5213C724.239 70.5773 723.903 71.7773 723.903 73.1213V83.0573H721.647V64.2892H723.615ZM745.464 83.4413C743.512 83.4413 741.784 83.0093 740.28 82.1453C738.776 81.2813 737.592 80.1133 736.728 78.6413C735.896 77.1373 735.48 75.4573 735.48 73.6013C735.48 71.7773 735.928 70.1133 736.824 68.6092C737.72 67.1052 738.92 65.9053 740.424 65.0093C741.96 64.1133 743.656 63.6653 745.512 63.6653C747.752 63.6653 749.624 64.3213 751.128 65.6333C752.664 66.9453 753.768 68.6572 754.44 70.7693L738.024 77.1053L737.352 75.4733L752.376 69.6173L751.896 70.2893C751.352 69.0093 750.52 67.9053 749.4 66.9773C748.312 66.0493 746.968 65.5852 745.368 65.5852C743.928 65.5852 742.632 65.9373 741.48 66.6413C740.328 67.3453 739.4 68.2892 738.696 69.4732C738.024 70.6573 737.688 72.0013 737.688 73.5053C737.688 74.9133 738.008 76.2253 738.648 77.4413C739.32 78.6573 740.248 79.6333 741.432 80.3693C742.616 81.1053 743.976 81.4733 745.512 81.4733C746.536 81.4733 747.512 81.2813 748.44 80.8973C749.4 80.5133 750.248 80.0173 750.984 79.4093L752.136 81.0413C751.24 81.7453 750.2 82.3213 749.016 82.7693C747.864 83.2173 746.68 83.4413 745.464 83.4413ZM760.694 46.5772H762.95V83.0573H760.694V46.5772Z" fill="#0C1F17"/>
<path d="M532.592 36.6389C534.576 34.6229 536.48 32.6869 538.304 30.8309C540.128 28.9429 541.76 27.1349 543.2 25.4069C544.672 23.6469 545.824 21.9509 546.656 20.3189C547.52 18.6869 547.952 17.1029 547.952 15.5669C547.952 14.8949 547.824 14.2869 547.568 13.7429C547.344 13.1989 547.008 12.7349 546.56 12.3509C546.144 11.9669 545.632 11.6789 545.024 11.4869C544.448 11.2629 543.792 11.1509 543.056 11.1509C542.32 11.1509 541.664 11.2629 541.088 11.4869C540.512 11.6789 540.032 11.9509 539.648 12.3029C539.264 12.6549 538.96 13.0389 538.736 13.4549C538.544 13.8709 538.448 14.3029 538.448 14.7509C538.448 15.7749 538.608 16.6869 538.928 17.4869C539.28 18.2549 539.744 18.9429 540.32 19.5509L536.048 23.4389C535.12 22.9909 534.32 22.2389 533.648 21.1829C533.008 20.1269 532.512 19.0229 532.16 17.8709C531.84 16.6869 531.68 15.7109 531.68 14.9429C531.68 13.1829 532.16 11.5029 533.12 9.90291C534.112 8.30291 535.536 6.99091 537.392 5.96691C539.28 4.94291 541.568 4.43092 544.256 4.43092C546.464 4.43092 548.384 4.92692 550.016 5.91891C551.648 6.91091 552.912 8.22291 553.808 9.85491C554.736 11.4549 555.2 13.1669 555.2 14.9909C555.2 16.4309 554.976 17.8229 554.528 19.1669C554.08 20.5109 553.456 21.8389 552.656 23.1509C551.888 24.4309 551.008 25.7109 550.016 26.9909C549.024 28.2389 548 29.5189 546.944 30.8309L543.776 29.9189H555.584V36.6389H532.592ZM573.057 36.6869C571.233 36.6869 569.505 36.3669 567.873 35.7269C566.273 35.0869 564.849 34.1109 563.601 32.7989C562.385 31.4549 561.425 29.7749 560.721 27.7589C560.017 25.7109 559.665 23.3109 559.665 20.5589C559.665 17.4869 560.001 14.9269 560.673 12.8789C561.345 10.7989 562.273 9.13492 563.457 7.88691C564.673 6.63892 566.097 5.75891 567.729 5.24691C569.361 4.70292 571.137 4.43092 573.057 4.43092C574.881 4.43092 576.593 4.75092 578.193 5.39091C579.825 6.03091 581.249 7.02291 582.465 8.36691C583.713 9.67891 584.689 11.3589 585.393 13.4069C586.097 15.4229 586.449 17.8069 586.449 20.5589C586.449 23.4069 586.097 25.8549 585.393 27.9029C584.689 29.9509 583.713 31.6309 582.465 32.9429C581.217 34.2229 579.793 35.1669 578.193 35.7749C576.593 36.3829 574.881 36.6869 573.057 36.6869ZM573.009 30.0149C574.609 30.0149 575.857 29.5989 576.753 28.7669C577.649 27.9029 578.273 26.7349 578.625 25.2629C579.009 23.7909 579.201 22.1589 579.201 20.3669C579.201 18.6069 579.009 17.0389 578.625 15.6629C578.273 14.2869 577.649 13.1989 576.753 12.3989C575.857 11.5669 574.609 11.1509 573.009 11.1509C571.441 11.1509 570.209 11.5669 569.313 12.3989C568.417 13.2309 567.793 14.3509 567.441 15.7589C567.089 17.1669 566.913 18.7509 566.913 20.5109C566.913 22.2709 567.089 23.8709 567.441 25.3109C567.793 26.7509 568.417 27.9029 569.313 28.7669C570.209 29.5989 571.441 30.0149 573.009 30.0149ZM590.525 4.81491H600.077V36.6389H593.069V11.5349H590.525V4.81491ZM615.425 26.7029C613.889 26.7029 612.401 26.2709 610.961 25.4069C609.553 24.5429 608.385 23.3429 607.457 21.8069C606.529 20.2389 606.065 18.4469 606.065 16.4309C606.065 13.8709 606.625 11.6949 607.745 9.90291C608.897 8.11091 610.369 6.75091 612.161 5.82292C613.953 4.89492 615.841 4.43092 617.825 4.43092C620.161 4.43092 622.241 4.95892 624.065 6.01492C625.921 7.03892 627.393 8.46292 628.481 10.2869C629.569 12.0789 630.113 14.1109 630.113 16.3829C630.113 19.0069 629.649 21.3749 628.721 23.4869C627.825 25.5669 626.609 27.4389 625.073 29.1029C623.569 30.7669 621.889 32.2869 620.033 33.6629C618.177 35.0069 616.305 36.2709 614.417 37.4549L609.761 32.4149C612.321 31.3589 614.577 30.1589 616.529 28.8149C618.481 27.4389 620.001 26.0149 621.089 24.5429C622.177 23.0389 622.721 21.5669 622.721 20.1269L624.449 20.3189C623.585 22.3349 622.481 23.9029 621.137 25.0229C619.793 26.1429 617.889 26.7029 615.425 26.7029ZM618.113 20.8469C619.457 20.8469 620.593 20.4149 621.521 19.5509C622.449 18.6869 622.913 17.7109 622.913 16.6229V15.5189C622.913 14.6869 622.705 13.9029 622.289 13.1669C621.873 12.4309 621.297 11.8389 620.561 11.3909C619.857 10.9109 619.041 10.6709 618.113 10.6709C617.217 10.6709 616.401 10.8789 615.665 11.2949C614.929 11.6789 614.353 12.2549 613.937 13.0229C613.521 13.7909 613.313 14.7349 613.313 15.8549C613.313 16.9429 613.521 17.8709 613.937 18.6389C614.385 19.3749 614.961 19.9349 615.665 20.3189C616.401 20.6709 617.217 20.8469 618.113 20.8469ZM651.324 0.590914C649.052 6.76691 646.78 12.9269 644.508 19.0709C642.236 25.2149 639.964 31.3749 637.692 37.5509H631.644C633.916 31.3749 636.188 25.2149 638.46 19.0709C640.732 12.9269 643.004 6.76691 645.276 0.590914H651.324ZM653.624 36.6389C655.608 34.6229 657.512 32.6869 659.336 30.8309C661.16 28.9429 662.792 27.1349 664.232 25.4069C665.704 23.6469 666.856 21.9509 667.688 20.3189C668.552 18.6869 668.984 17.1029 668.984 15.5669C668.984 14.8949 668.856 14.2869 668.6 13.7429C668.376 13.1989 668.04 12.7349 667.592 12.3509C667.176 11.9669 666.664 11.6789 666.056 11.4869C665.48 11.2629 664.824 11.1509 664.088 11.1509C663.352 11.1509 662.696 11.2629 662.12 11.4869C661.544 11.6789 661.064 11.9509 660.68 12.3029C660.296 12.6549 659.992 13.0389 659.768 13.4549C659.576 13.8709 659.48 14.3029 659.48 14.7509C659.48 15.7749 659.64 16.6869 659.96 17.4869C660.312 18.2549 660.776 18.9429 661.352 19.5509L657.08 23.4389C656.152 22.9909 655.352 22.2389 654.68 21.1829C654.04 20.1269 653.544 19.0229 653.192 17.8709C652.872 16.6869 652.712 15.7109 652.712 14.9429C652.712 13.1829 653.192 11.5029 654.152 9.90291C655.144 8.30291 656.568 6.99091 658.424 5.96691C660.312 4.94291 662.6 4.43092 665.288 4.43092C667.496 4.43092 669.416 4.92692 671.048 5.91891C672.68 6.91091 673.944 8.22291 674.84 9.85491C675.768 11.4549 676.232 13.1669 676.232 14.9909C676.232 16.4309 676.008 17.8229 675.56 19.1669C675.112 20.5109 674.488 21.8389 673.688 23.1509C672.92 24.4309 672.04 25.7109 671.048 26.9909C670.056 28.2389 669.032 29.5189 667.976 30.8309L664.808 29.9189H676.616V36.6389H653.624ZM694.088 36.6869C692.264 36.6869 690.536 36.3669 688.904 35.7269C687.304 35.0869 685.88 34.1109 684.632 32.7989C683.416 31.4549 682.456 29.7749 681.752 27.7589C681.048 25.7109 680.696 23.3109 680.696 20.5589C680.696 17.4869 681.032 14.9269 681.704 12.8789C682.376 10.7989 683.304 9.13492 684.488 7.88691C685.704 6.63892 687.128 5.75891 688.76 5.24691C690.392 4.70292 692.168 4.43092 694.088 4.43092C695.912 4.43092 697.624 4.75092 699.224 5.39091C700.856 6.03091 702.28 7.02291 703.496 8.36691C704.744 9.67891 705.72 11.3589 706.424 13.4069C707.128 15.4229 707.48 17.8069 707.48 20.5589C707.48 23.4069 707.128 25.8549 706.424 27.9029C705.72 29.9509 704.744 31.6309 703.496 32.9429C702.248 34.2229 700.824 35.1669 699.224 35.7749C697.624 36.3829 695.912 36.6869 694.088 36.6869ZM694.04 30.0149C695.64 30.0149 696.888 29.5989 697.784 28.7669C698.68 27.9029 699.304 26.7349 699.656 25.2629C700.04 23.7909 700.232 22.1589 700.232 20.3669C700.232 18.6069 700.04 17.0389 699.656 15.6629C699.304 14.2869 698.68 13.1989 697.784 12.3989C696.888 11.5669 695.64 11.1509 694.04 11.1509C692.472 11.1509 691.24 11.5669 690.344 12.3989C689.448 13.2309 688.824 14.3509 688.472 15.7589C688.12 17.1669 687.944 18.7509 687.944 20.5109C687.944 22.2709 688.12 23.8709 688.472 25.3109C688.824 26.7509 689.448 27.9029 690.344 28.7669C691.24 29.5989 692.472 30.0149 694.04 30.0149ZM711.749 36.6389C713.733 34.6229 715.637 32.6869 717.461 30.8309C719.285 28.9429 720.917 27.1349 722.357 25.4069C723.829 23.6469 724.981 21.9509 725.813 20.3189C726.677 18.6869 727.109 17.1029 727.109 15.5669C727.109 14.8949 726.981 14.2869 726.725 13.7429C726.501 13.1989 726.165 12.7349 725.717 12.3509C725.301 11.9669 724.789 11.6789 724.181 11.4869C723.605 11.2629 722.949 11.1509 722.213 11.1509C721.477 11.1509 720.821 11.2629 720.245 11.4869C719.669 11.6789 719.189 11.9509 718.805 12.3029C718.421 12.6549 718.117 13.0389 717.893 13.4549C717.701 13.8709 717.605 14.3029 717.605 14.7509C717.605 15.7749 717.765 16.6869 718.085 17.4869C718.437 18.2549 718.901 18.9429 719.477 19.5509L715.205 23.4389C714.277 22.9909 713.477 22.2389 712.805 21.1829C712.165 20.1269 711.669 19.0229 711.317 17.8709C710.997 16.6869 710.837 15.7109 710.837 14.9429C710.837 13.1829 711.317 11.5029 712.277 9.90291C713.269 8.30291 714.693 6.99091 716.549 5.96691C718.437 4.94291 720.725 4.43092 723.413 4.43092C725.621 4.43092 727.541 4.92692 729.173 5.91891C730.805 6.91091 732.069 8.22291 732.965 9.85491C733.893 11.4549 734.357 13.1669 734.357 14.9909C734.357 16.4309 734.133 17.8229 733.685 19.1669C733.237 20.5109 732.613 21.8389 731.813 23.1509C731.045 24.4309 730.165 25.7109 729.173 26.9909C728.181 28.2389 727.157 29.5189 726.101 30.8309L722.933 29.9189H734.741V36.6389H711.749ZM752.213 36.6869C750.389 36.6869 748.661 36.3669 747.029 35.7269C745.429 35.0869 744.005 34.1109 742.757 32.7989C741.541 31.4549 740.581 29.7749 739.877 27.7589C739.173 25.7109 738.821 23.3109 738.821 20.5589C738.821 17.4869 739.157 14.9269 739.829 12.8789C740.501 10.7989 741.429 9.13492 742.613 7.88691C743.829 6.63892 745.253 5.75891 746.885 5.24691C748.517 4.70292 750.293 4.43092 752.213 4.43092C754.037 4.43092 755.749 4.75092 757.349 5.39091C758.981 6.03091 760.405 7.02291 761.621 8.36691C762.869 9.67891 763.845 11.3589 764.549 13.4069C765.253 15.4229 765.605 17.8069 765.605 20.5589C765.605 23.4069 765.253 25.8549 764.549 27.9029C763.845 29.9509 762.869 31.6309 761.621 32.9429C760.373 34.2229 758.949 35.1669 757.349 35.7749C755.749 36.3829 754.037 36.6869 752.213 36.6869ZM752.165 30.0149C753.765 30.0149 755.013 29.5989 755.909 28.7669C756.805 27.9029 757.429 26.7349 757.781 25.2629C758.165 23.7909 758.357 22.1589 758.357 20.3669C758.357 18.6069 758.165 17.0389 757.781 15.6629C757.429 14.2869 756.805 13.1989 755.909 12.3989C755.013 11.5669 753.765 11.1509 752.165 11.1509C750.597 11.1509 749.365 11.5669 748.469 12.3989C747.573 13.2309 746.949 14.3509 746.597 15.7589C746.245 17.1669 746.069 18.7509 746.069 20.5109C746.069 22.2709 746.245 23.8709 746.597 25.3109C746.949 26.7509 747.573 27.9029 748.469 28.7669C749.365 29.5989 750.597 30.0149 752.165 30.0149Z" fill="#0C1F17"/>
<path d="M629.904 271.664C629.168 272.112 628.32 272.544 627.36 272.96C626.4 273.376 625.344 273.696 624.192 273.92C623.04 274.176 621.792 274.304 620.448 274.304C617.856 274.304 615.504 273.856 613.392 272.96C611.28 272.032 609.472 270.784 607.968 269.216C606.464 267.616 605.296 265.792 604.464 263.744C603.664 261.664 603.264 259.456 603.264 257.12C603.264 254.624 603.696 252.304 604.56 250.16C605.424 248.016 606.64 246.144 608.208 244.544C609.776 242.944 611.6 241.696 613.68 240.8C615.76 239.904 618.016 239.456 620.448 239.456C622.24 239.456 623.92 239.696 625.488 240.176C627.056 240.656 628.48 241.28 629.76 242.048L628.752 244.208C627.632 243.504 626.368 242.912 624.96 242.432C623.552 241.952 622.064 241.712 620.496 241.712C618.48 241.712 616.576 242.112 614.784 242.912C612.992 243.68 611.408 244.768 610.032 246.176C608.688 247.552 607.632 249.168 606.864 251.024C606.096 252.88 605.712 254.88 605.712 257.024C605.712 259.072 606.048 261.008 606.72 262.832C607.424 264.656 608.416 266.256 609.696 267.632C611.008 269.008 612.576 270.096 614.4 270.896C616.224 271.664 618.256 272.048 620.496 272.048C622.16 272.048 623.68 271.824 625.056 271.376C626.464 270.896 627.712 270.304 628.8 269.6L629.904 271.664ZM643.364 274.448C641.604 274.448 640.196 273.936 639.14 272.912C638.084 271.856 637.524 270.496 637.46 268.832V255.152H639.716V268.16C639.78 269.376 640.164 270.384 640.868 271.184C641.604 271.984 642.692 272.416 644.132 272.48C645.348 272.48 646.484 272.16 647.54 271.52C648.596 270.88 649.444 270.016 650.084 268.928C650.756 267.808 651.092 266.544 651.092 265.136V255.152H653.348V273.92H651.332L651.092 268.016L651.428 269.312C651.108 270.272 650.532 271.152 649.7 271.952C648.9 272.72 647.94 273.328 646.82 273.776C645.732 274.224 644.58 274.448 643.364 274.448ZM663.85 255.152L664.09 260.912L663.802 260.192C664.218 259.04 664.874 258.048 665.77 257.216C666.666 256.384 667.658 255.744 668.746 255.296C669.866 254.848 670.938 254.624 671.962 254.624L671.866 256.832C670.426 256.832 669.114 257.152 667.93 257.792C666.778 258.432 665.85 259.296 665.146 260.384C664.474 261.44 664.138 262.64 664.138 263.984V273.92H661.882V255.152H663.85ZM682.704 274.304C681.616 274.304 680.48 274.112 679.296 273.728C678.112 273.312 677.152 272.656 676.416 271.76L677.472 270.272C678.112 270.944 678.864 271.488 679.728 271.904C680.624 272.288 681.568 272.48 682.56 272.48C683.296 272.48 683.984 272.384 684.624 272.192C685.296 271.968 685.84 271.6 686.256 271.088C686.672 270.576 686.88 269.888 686.88 269.024C686.88 268.128 686.624 267.44 686.112 266.96C685.632 266.48 685.008 266.096 684.24 265.808C683.504 265.488 682.72 265.2 681.888 264.944C680.512 264.496 679.376 263.888 678.48 263.12C677.616 262.352 677.184 261.264 677.184 259.856C677.184 258.832 677.424 257.936 677.904 257.168C678.416 256.4 679.104 255.808 679.968 255.392C680.832 254.944 681.808 254.72 682.896 254.72C683.888 254.72 684.864 254.88 685.824 255.2C686.816 255.52 687.712 256.064 688.512 256.832L687.504 258.416C686.992 257.712 686.304 257.232 685.44 256.976C684.608 256.72 683.872 256.576 683.232 256.544C682.688 256.544 682.112 256.656 681.504 256.88C680.928 257.104 680.432 257.44 680.016 257.888C679.632 258.304 679.44 258.864 679.44 259.568C679.44 260.304 679.648 260.912 680.064 261.392C680.48 261.84 681.008 262.208 681.648 262.496C682.32 262.784 683.008 263.056 683.712 263.312C684.64 263.6 685.504 263.952 686.304 264.368C687.136 264.752 687.808 265.28 688.32 265.952C688.864 266.592 689.136 267.456 689.136 268.544C689.136 269.632 688.896 270.624 688.416 271.52C687.936 272.384 687.216 273.072 686.256 273.584C685.328 274.064 684.144 274.304 682.704 274.304ZM694.136 264.416C694.136 262.592 694.568 260.928 695.432 259.424C696.328 257.92 697.528 256.736 699.032 255.872C700.568 254.976 702.28 254.528 704.168 254.528C706.088 254.528 707.8 254.976 709.304 255.872C710.808 256.736 711.992 257.92 712.856 259.424C713.72 260.928 714.152 262.592 714.152 264.416C714.152 266.24 713.72 267.904 712.856 269.408C711.992 270.912 710.792 272.112 709.256 273.008C707.752 273.872 706.056 274.304 704.168 274.304C702.248 274.304 700.536 273.888 699.032 273.056C697.528 272.192 696.328 271.024 695.432 269.552C694.568 268.048 694.136 266.336 694.136 264.416ZM696.392 264.464C696.392 265.936 696.728 267.28 697.4 268.496C698.104 269.68 699.032 270.624 700.184 271.328C701.368 272.032 702.68 272.384 704.12 272.384C705.56 272.384 706.856 272.032 708.008 271.328C709.192 270.624 710.12 269.68 710.792 268.496C711.496 267.28 711.848 265.936 711.848 264.464C711.848 262.992 711.496 261.664 710.792 260.48C710.12 259.264 709.192 258.304 708.008 257.6C706.856 256.864 705.56 256.496 704.12 256.496C702.648 256.496 701.32 256.88 700.136 257.648C698.984 258.384 698.072 259.36 697.4 260.576C696.728 261.792 696.392 263.088 696.392 264.464ZM736.721 273.92V239.84H745.121C748.417 239.84 751.217 240.368 753.521 241.424C755.857 242.448 757.745 243.808 759.185 245.504C760.625 247.2 761.681 249.056 762.353 251.072C763.025 253.088 763.361 255.088 763.361 257.072C763.361 259.664 762.913 262 762.017 264.08C761.121 266.128 759.889 267.888 758.321 269.36C756.785 270.832 755.025 271.968 753.041 272.768C751.057 273.536 748.961 273.92 746.753 273.92H736.721ZM739.073 271.664H746.129C748.177 271.664 750.097 271.328 751.889 270.656C753.681 269.984 755.249 269.008 756.593 267.728C757.969 266.448 759.041 264.912 759.809 263.12C760.577 261.296 760.961 259.232 760.961 256.928C760.961 254.976 760.625 253.12 759.953 251.36C759.313 249.568 758.337 247.984 757.025 246.608C755.713 245.232 754.097 244.144 752.177 243.344C750.257 242.544 748.017 242.144 745.457 242.144H739.073V271.664ZM797.793 271.52C797.217 271.904 796.513 272.272 795.681 272.624C794.881 272.944 794.017 273.232 793.089 273.488C792.161 273.744 791.201 273.936 790.209 274.064C789.249 274.224 788.337 274.304 787.473 274.304C784.785 274.304 782.353 273.872 780.177 273.008C778.033 272.112 776.193 270.896 774.657 269.36C773.121 267.792 771.937 265.984 771.105 263.936C770.305 261.856 769.905 259.616 769.905 257.216C769.905 254.624 770.353 252.24 771.249 250.064C772.177 247.888 773.441 246.016 775.041 244.448C776.641 242.848 778.497 241.616 780.609 240.752C782.721 239.888 784.961 239.456 787.329 239.456C789.121 239.456 790.801 239.68 792.369 240.128C793.969 240.576 795.409 241.184 796.689 241.952L795.825 244.064C795.089 243.616 794.257 243.232 793.329 242.912C792.401 242.56 791.441 242.288 790.449 242.096C789.489 241.904 788.529 241.808 787.569 241.808C785.393 241.808 783.377 242.192 781.521 242.96C779.665 243.728 778.049 244.8 776.673 246.176C775.297 247.552 774.225 249.168 773.457 251.024C772.689 252.88 772.305 254.896 772.305 257.072C772.305 259.184 772.657 261.152 773.361 262.976C774.097 264.768 775.121 266.352 776.433 267.728C777.777 269.072 779.377 270.128 781.233 270.896C783.089 271.632 785.153 272 787.425 272C788.769 272 790.177 271.84 791.649 271.52C793.121 271.2 794.385 270.736 795.441 270.128V260.672H787.761V258.416H797.793V271.52Z" fill="#0C1F17"/>
<path d="M565.592 218.218C567.576 216.202 569.48 214.266 571.304 212.41C573.128 210.522 574.76 208.714 576.2 206.986C577.672 205.226 578.824 203.53 579.656 201.898C580.52 200.266 580.952 198.682 580.952 197.146C580.952 196.474 580.824 195.866 580.568 195.322C580.344 194.778 580.008 194.314 579.56 193.93C579.144 193.546 578.632 193.258 578.024 193.066C577.448 192.842 576.792 192.73 576.056 192.73C575.32 192.73 574.664 192.842 574.088 193.066C573.512 193.258 573.032 193.53 572.648 193.882C572.264 194.234 571.96 194.618 571.736 195.034C571.544 195.45 571.448 195.882 571.448 196.33C571.448 197.354 571.608 198.266 571.928 199.066C572.28 199.834 572.744 200.522 573.32 201.13L569.048 205.018C568.12 204.57 567.32 203.818 566.648 202.762C566.008 201.706 565.512 200.602 565.16 199.45C564.84 198.266 564.68 197.29 564.68 196.522C564.68 194.762 565.16 193.082 566.12 191.482C567.112 189.882 568.536 188.57 570.392 187.546C572.28 186.522 574.568 186.01 577.256 186.01C579.464 186.01 581.384 186.506 583.016 187.498C584.648 188.49 585.912 189.802 586.808 191.434C587.736 193.034 588.2 194.746 588.2 196.57C588.2 198.01 587.976 199.402 587.528 200.746C587.08 202.09 586.456 203.418 585.656 204.73C584.888 206.01 584.008 207.29 583.016 208.57C582.024 209.818 581 211.098 579.944 212.41L576.776 211.498H588.584V218.218H565.592ZM606.057 218.266C604.233 218.266 602.505 217.946 600.873 217.306C599.273 216.666 597.849 215.69 596.601 214.378C595.385 213.034 594.425 211.354 593.721 209.338C593.017 207.29 592.665 204.89 592.665 202.138C592.665 199.066 593.001 196.506 593.673 194.458C594.345 192.378 595.273 190.714 596.457 189.466C597.673 188.218 599.097 187.338 600.729 186.826C602.361 186.282 604.137 186.01 606.057 186.01C607.881 186.01 609.593 186.33 611.193 186.97C612.825 187.61 614.249 188.602 615.465 189.946C616.713 191.258 617.689 192.938 618.393 194.986C619.097 197.002 619.449 199.386 619.449 202.138C619.449 204.986 619.097 207.434 618.393 209.482C617.689 211.53 616.713 213.21 615.465 214.522C614.217 215.802 612.793 216.746 611.193 217.354C609.593 217.962 607.881 218.266 606.057 218.266ZM606.009 211.594C607.609 211.594 608.857 211.178 609.753 210.346C610.649 209.482 611.273 208.314 611.625 206.842C612.009 205.37 612.201 203.738 612.201 201.946C612.201 200.186 612.009 198.618 611.625 197.242C611.273 195.866 610.649 194.778 609.753 193.978C608.857 193.146 607.609 192.73 606.009 192.73C604.441 192.73 603.209 193.146 602.313 193.978C601.417 194.81 600.793 195.93 600.441 197.338C600.089 198.746 599.913 200.33 599.913 202.09C599.913 203.85 600.089 205.45 600.441 206.89C600.793 208.33 601.417 209.482 602.313 210.346C603.209 211.178 604.441 211.594 606.009 211.594ZM623.717 218.218C625.701 216.202 627.605 214.266 629.429 212.41C631.253 210.522 632.885 208.714 634.325 206.986C635.797 205.226 636.949 203.53 637.781 201.898C638.645 200.266 639.077 198.682 639.077 197.146C639.077 196.474 638.949 195.866 638.693 195.322C638.469 194.778 638.133 194.314 637.685 193.93C637.269 193.546 636.757 193.258 636.149 193.066C635.573 192.842 634.917 192.73 634.181 192.73C633.445 192.73 632.789 192.842 632.213 193.066C631.637 193.258 631.157 193.53 630.773 193.882C630.389 194.234 630.085 194.618 629.861 195.034C629.669 195.45 629.573 195.882 629.573 196.33C629.573 197.354 629.733 198.266 630.053 199.066C630.405 199.834 630.869 200.522 631.445 201.13L627.173 205.018C626.245 204.57 625.445 203.818 624.773 202.762C624.133 201.706 623.637 200.602 623.285 199.45C622.965 198.266 622.805 197.29 622.805 196.522C622.805 194.762 623.285 193.082 624.245 191.482C625.237 189.882 626.661 188.57 628.517 187.546C630.405 186.522 632.693 186.01 635.381 186.01C637.589 186.01 639.509 186.506 641.141 187.498C642.773 188.49 644.037 189.802 644.933 191.434C645.861 193.034 646.325 194.746 646.325 196.57C646.325 198.01 646.101 199.402 645.653 200.746C645.205 202.09 644.581 203.418 643.781 204.73C643.013 206.01 642.133 207.29 641.141 208.57C640.149 209.818 639.125 211.098 638.069 212.41L634.901 211.498H646.709V218.218H623.717ZM651.51 186.394H661.062V218.218H654.054V193.114H651.51V186.394ZM686.106 182.17C683.834 188.346 681.562 194.506 679.29 200.65C677.018 206.794 674.746 212.954 672.474 219.13H666.426C668.698 212.954 670.97 206.794 673.242 200.65C675.514 194.506 677.786 188.346 680.058 182.17H686.106ZM688.405 218.218C690.389 216.202 692.293 214.266 694.117 212.41C695.941 210.522 697.573 208.714 699.013 206.986C700.485 205.226 701.637 203.53 702.469 201.898C703.333 200.266 703.765 198.682 703.765 197.146C703.765 196.474 703.637 195.866 703.381 195.322C703.157 194.778 702.821 194.314 702.373 193.93C701.957 193.546 701.445 193.258 700.837 193.066C700.261 192.842 699.605 192.73 698.869 192.73C698.133 192.73 697.477 192.842 696.901 193.066C696.325 193.258 695.845 193.53 695.461 193.882C695.077 194.234 694.773 194.618 694.549 195.034C694.357 195.45 694.261 195.882 694.261 196.33C694.261 197.354 694.421 198.266 694.741 199.066C695.093 199.834 695.557 200.522 696.133 201.13L691.861 205.018C690.933 204.57 690.133 203.818 689.461 202.762C688.821 201.706 688.325 200.602 687.973 199.45C687.653 198.266 687.493 197.29 687.493 196.522C687.493 194.762 687.973 193.082 688.933 191.482C689.925 189.882 691.349 188.57 693.205 187.546C695.093 186.522 697.381 186.01 700.069 186.01C702.277 186.01 704.197 186.506 705.829 187.498C707.461 188.49 708.725 189.802 709.621 191.434C710.549 193.034 711.013 194.746 711.013 196.57C711.013 198.01 710.789 199.402 710.341 200.746C709.893 202.09 709.269 203.418 708.469 204.73C707.701 206.01 706.821 207.29 705.829 208.57C704.837 209.818 703.813 211.098 702.757 212.41L699.589 211.498H711.397V218.218H688.405ZM728.869 218.266C727.045 218.266 725.317 217.946 723.685 217.306C722.085 216.666 720.661 215.69 719.413 214.378C718.197 213.034 717.237 211.354 716.533 209.338C715.829 207.29 715.477 204.89 715.477 202.138C715.477 199.066 715.813 196.506 716.485 194.458C717.157 192.378 718.085 190.714 719.269 189.466C720.485 188.218 721.909 187.338 723.541 186.826C725.173 186.282 726.949 186.01 728.869 186.01C730.693 186.01 732.405 186.33 734.005 186.97C735.637 187.61 737.061 188.602 738.277 189.946C739.525 191.258 740.501 192.938 741.205 194.986C741.909 197.002 742.261 199.386 742.261 202.138C742.261 204.986 741.909 207.434 741.205 209.482C740.501 211.53 739.525 213.21 738.277 214.522C737.029 215.802 735.605 216.746 734.005 217.354C732.405 217.962 730.693 218.266 728.869 218.266ZM728.821 211.594C730.421 211.594 731.669 211.178 732.565 210.346C733.461 209.482 734.085 208.314 734.437 206.842C734.821 205.37 735.013 203.738 735.013 201.946C735.013 200.186 734.821 198.618 734.437 197.242C734.085 195.866 733.461 194.778 732.565 193.978C731.669 193.146 730.421 192.73 728.821 192.73C727.253 192.73 726.021 193.146 725.125 193.978C724.229 194.81 723.605 195.93 723.253 197.338C722.901 198.746 722.725 200.33 722.725 202.09C722.725 203.85 722.901 205.45 723.253 206.89C723.605 208.33 724.229 209.482 725.125 210.346C726.021 211.178 727.253 211.594 728.821 211.594ZM746.53 218.218C748.514 216.202 750.418 214.266 752.242 212.41C754.066 210.522 755.698 208.714 757.138 206.986C758.61 205.226 759.762 203.53 760.594 201.898C761.458 200.266 761.89 198.682 761.89 197.146C761.89 196.474 761.762 195.866 761.506 195.322C761.282 194.778 760.946 194.314 760.498 193.93C760.082 193.546 759.57 193.258 758.962 193.066C758.386 192.842 757.73 192.73 756.994 192.73C756.258 192.73 755.602 192.842 755.026 193.066C754.45 193.258 753.97 193.53 753.586 193.882C753.202 194.234 752.898 194.618 752.674 195.034C752.482 195.45 752.386 195.882 752.386 196.33C752.386 197.354 752.546 198.266 752.866 199.066C753.218 199.834 753.682 200.522 754.258 201.13L749.986 205.018C749.058 204.57 748.258 203.818 747.586 202.762C746.946 201.706 746.45 200.602 746.098 199.45C745.778 198.266 745.618 197.29 745.618 196.522C745.618 194.762 746.098 193.082 747.058 191.482C748.05 189.882 749.474 188.57 751.33 187.546C753.218 186.522 755.506 186.01 758.194 186.01C760.402 186.01 762.322 186.506 763.954 187.498C765.586 188.49 766.85 189.802 767.746 191.434C768.674 193.034 769.138 194.746 769.138 196.57C769.138 198.01 768.914 199.402 768.466 200.746C768.018 202.09 767.394 203.418 766.594 204.73C765.826 206.01 764.946 207.29 763.954 208.57C762.962 209.818 761.938 211.098 760.882 212.41L757.714 211.498H769.522V218.218H746.53ZM774.514 218.218C776.498 216.202 778.402 214.266 780.226 212.41C782.05 210.522 783.682 208.714 785.122 206.986C786.594 205.226 787.746 203.53 788.578 201.898C789.442 200.266 789.874 198.682 789.874 197.146C789.874 196.474 789.746 195.866 789.49 195.322C789.266 194.778 788.93 194.314 788.482 193.93C788.066 193.546 787.554 193.258 786.946 193.066C786.37 192.842 785.714 192.73 784.978 192.73C784.242 192.73 783.586 192.842 783.01 193.066C782.434 193.258 781.954 193.53 781.57 193.882C781.186 194.234 780.882 194.618 780.658 195.034C780.466 195.45 780.37 195.882 780.37 196.33C780.37 197.354 780.53 198.266 780.85 199.066C781.202 199.834 781.666 200.522 782.242 201.13L777.97 205.018C777.042 204.57 776.242 203.818 775.57 202.762C774.93 201.706 774.434 200.602 774.082 199.45C773.762 198.266 773.602 197.29 773.602 196.522C773.602 194.762 774.082 193.082 775.042 191.482C776.034 189.882 777.458 188.57 779.314 187.546C781.202 186.522 783.49 186.01 786.178 186.01C788.386 186.01 790.306 186.506 791.938 187.498C793.57 188.49 794.834 189.802 795.73 191.434C796.658 193.034 797.122 194.746 797.122 196.57C797.122 198.01 796.898 199.402 796.45 200.746C796.002 202.09 795.378 203.418 794.578 204.73C793.81 206.01 792.93 207.29 791.938 208.57C790.946 209.818 789.922 211.098 788.866 212.41L785.698 211.498H797.506V218.218H774.514Z" fill="#0C1F17"/>
</svg>
