<svg width="51" height="71" viewBox="0 0 51 71" fill="none" xmlns="http://www.w3.org/2000/svg">
<path d="M0 9.12451C0 6.80387 1.06207 4.57827 2.95257 2.93733C4.84307 1.29638 7.40714 0.374512 10.0807 0.374512L40.3229 0.374512C42.9964 0.374512 45.5605 1.29638 47.451 2.93733C49.3415 4.57827 50.4036 6.80387 50.4036 9.12451V61.6245C50.4036 63.9452 49.3415 66.1708 47.451 67.8117C45.5605 69.4526 42.9964 70.3745 40.3229 70.3745H10.0807C7.40714 70.3745 4.84307 69.4526 2.95257 67.8117C1.06207 66.1708 0 63.9452 0 61.6245V9.12451ZM30.2422 57.2495C30.2422 56.0892 29.7111 54.9764 28.7659 54.1559C27.8206 53.3354 26.5386 52.8745 25.2018 52.8745C23.865 52.8745 22.583 53.3354 21.6377 54.1559C20.6925 54.9764 20.1614 56.0892 20.1614 57.2495C20.1614 58.4098 20.6925 59.5226 21.6377 60.3431C22.583 61.1636 23.865 61.6245 25.2018 61.6245C26.5386 61.6245 27.8206 61.1636 28.7659 60.3431C29.7111 59.5226 30.2422 58.4098 30.2422 57.2495Z" fill="#F9F9F9"/>
</svg>
